<svg id="Capa_1" data-name="Capa 1" xmlns="http://www.w3.org/2000/svg" xmlns:xlink="http://www.w3.org/1999/xlink" viewBox="0 0 937.71 378.85"><defs><style>.cls-1{fill:url(#Degradado_sin_nombre_14);}.cls-17,.cls-2,.cls-3,.cls-5,.cls-8,.cls-9{fill:none;}.cls-2,.cls-3{stroke:#262626;}.cls-2,.cls-3,.cls-6,.cls-7{stroke-miterlimit:10;}.cls-2,.cls-9{stroke-width:2px;}.cls-3{stroke-width:3px;}.cls-4{font-size:50.1px;font-family:WillyWonka;}.cls-11,.cls-13,.cls-4{fill:#1d1d1b;}.cls-5{stroke:#1d1d1b;}.cls-5,.cls-8,.cls-9{stroke-linecap:round;stroke-linejoin:round;}.cls-5,.cls-8{stroke-width:4px;}.cls-6{font-size:97.68px;stroke-width:10px;letter-spacing:0.13em;}.cls-6,.cls-7,.cls-8,.cls-9{stroke:#000;}.cls-6,.cls-7{font-family:Consolas-Bold, Consolas;}.cls-13,.cls-6,.cls-7{font-weight:700;}.cls-7{font-size:82.3px;stroke-width:7px;letter-spacing:0.13em;}.cls-10{fill:#871721;}.cls-11{font-size:26px;font-family:Arial-Black, Arial;font-weight:800;}.cls-12{letter-spacing:-0.01em;}.cls-13{font-size:20px;font-family:Arial-BoldMT, Arial;}.cls-14{letter-spacing:-0.07em;}.cls-15{letter-spacing:-0.02em;}.cls-16{letter-spacing:-0.04em;}</style><linearGradient id="Degradado_sin_nombre_14" x1="-206.32" y1="316.83" x2="756.38" y2="521.46" gradientUnits="userSpaceOnUse"><stop offset="0.13" stop-color="#f1d27b"/><stop offset="0.2" stop-color="#e7d7ad"/><stop offset="0.26" stop-color="#f1d27b"/><stop offset="0.7" stop-color="#efd796"/><stop offset="0.75" stop-color="#ecd79e"/><stop offset="0.82" stop-color="#e5d6b1"/><stop offset="0.88" stop-color="#f0d58e"/></linearGradient></defs><path class="cls-1" d="M744.38,257.51a24,24,0,0,0,7.71,17.63v12.75a24,24,0,0,0,0,35.25v13.1a24,24,0,0,0,0,35.24V384.4a24,24,0,0,0,0,35.24V432.4a24,24,0,0,0,0,35.24v13.43a24,24,0,0,0,0,35.25v12.92a24,24,0,0,0,0,35.24v11.63c-4.74,3.59-7.71,8.75-7.71,14.48s3,10.89,7.71,14.48v5.25H-185.62v-7.69a23.91,23.91,0,0,0,8-17.88,23.93,23.93,0,0,0-8-17.89V554.63a23.91,23.91,0,0,0,8-17.88,23.93,23.93,0,0,0-8-17.89v-12.4a23.89,23.89,0,0,0,8-17.88,23.91,23.91,0,0,0-8-17.88V457.8a23.91,23.91,0,0,0,8-17.88,23.89,23.89,0,0,0-8-17.88V409.8a23.91,23.91,0,0,0,8-17.88,23.89,23.89,0,0,0-8-17.88v-12.4a23.93,23.93,0,0,0,8-17.89,23.91,23.91,0,0,0-8-17.88V313.28a23.89,23.89,0,0,0,8-17.88,23.91,23.91,0,0,0-8-17.88v-11c4.91-3.5,8-8.59,8-14.25s-3.09-10.74-8-14.24v-6.58H752.09v8.42A23.93,23.93,0,0,0,744.38,257.51Z" transform="translate(185.62 -231.47)"/><path class="cls-2" d="M736.24,266.23V575.55C725,575.55,716,584,716,594.46H-151.33c0-10.44-9.08-18.91-20.29-18.91V266.23c11.21,0,20.29-8.47,20.29-18.91H716C716,257.76,725,266.23,736.24,266.23Z" transform="translate(185.62 -231.47)"/><path class="cls-3" d="M726,276.4V567c-11,0-19.91,7.95-19.91,17.76H-145.13c0-9.81-8.92-17.76-19.92-17.76V276.4c11,0,19.92-7.95,19.92-17.76H706C706,268.45,715,276.4,726,276.4Z" transform="translate(185.62 -231.47)"/><text class="cls-4" transform="translate(393.86 91.96)">EbuUuu</text><line class="cls-5" x1="383" y1="79.85" x2="51" y2="79.85"/><line class="cls-5" x1="881.71" y1="79.85" x2="549.71" y2="79.85"/><text class="cls-6" transform="translate(51 189.07)">BOLETO</text><text class="cls-6" transform="translate(498.7 189.14)">DORADO</text><text class="cls-7" transform="translate(447.17 183.55)">~</text><line class="cls-8" x1="51" y1="221.43" x2="881.71" y2="221.43"/><line class="cls-9" x1="54.71" y1="211.85" x2="885.43" y2="211.85"/><path class="cls-10" d="M-119.15,496a38.16,38.16,0,0,1-6.26-16.64c-.68-7,4.56-17.27,13-13.63,5,2.16,8.8,7.43,9.83,12.7-.87-4.47,6.92-11.37,10.62-12.73,5-1.84,9.76.21,11.51,5.34,4.76,14-5.5,29.21-15.2,38.42-6.64,6.3-11.25.57-16.12-4.46A60.67,60.67,0,0,1-119.15,496Z" transform="translate(185.62 -231.47)"/><line class="cls-8" x1="53.5" y1="296" x2="884.21" y2="296"/><path class="cls-10" d="M651.1,496a38.14,38.14,0,0,1-6.25-16.64c-.68-7,4.55-17.27,13-13.63,5,2.16,8.8,7.43,9.82,12.7-.87-4.47,6.93-11.37,10.62-12.73,5-1.84,9.77.21,11.51,5.34,4.77,14-5.5,29.21-15.2,38.42-6.64,6.3-11.24.57-16.12-4.46A60.67,60.67,0,0,1,651.1,496Z" transform="translate(185.62 -231.47)"/><text class="cls-11" transform="translate(121.03 269.62)">GA<tspan class="cls-12" x="41.88" y="0">N</tspan><tspan x="63.29" y="0">ASTE EL TICKET DEL AMOR Y MI CORAZÓN </tspan></text><text class="cls-13" transform="translate(78.95 327.89)"><tspan class="cls-14">V</tspan><tspan x="11.86" y="0">ALIDO POR MUCHOS MISHIBESHI</tspan><tspan class="cls-15" x="339.65" y="0">T</tspan><tspan x="351.5" y="0">OS</tspan><tspan class="cls-15" x="380.4" y="0" xml:space="preserve"> Y</tspan><tspan class="cls-16" x="398.57" y="0"> </tspan><tspan x="403.39" y="0">ABASHI</tspan><tspan class="cls-15" x="480.06" y="0">T</tspan><tspan x="491.91" y="0">OS </tspan><tspan class="cls-14" x="526.37" y="0">P</tspan><tspan x="538.22" y="0">AR</tspan><tspan class="cls-16" x="567.11" y="0">A </tspan><tspan x="585.63" y="0">ALEGRAR TU DIAAM</tspan></text><path class="cls-17" d="M-177.62,584.75a23.91,23.91,0,0,1-8,17.88V566.86A23.93,23.93,0,0,1-177.62,584.75Z" transform="translate(185.62 -231.47)"/><path class="cls-17" d="M-177.62,536.75a23.91,23.91,0,0,1-8,17.88V518.86A23.93,23.93,0,0,1-177.62,536.75Z" transform="translate(185.62 -231.47)"/><path class="cls-17" d="M-177.62,488.58a23.89,23.89,0,0,1-8,17.88V470.7A23.91,23.91,0,0,1-177.62,488.58Z" transform="translate(185.62 -231.47)"/><path class="cls-17" d="M-177.62,439.92a23.91,23.91,0,0,1-8,17.88V422A23.89,23.89,0,0,1-177.62,439.92Z" transform="translate(185.62 -231.47)"/><path class="cls-17" d="M-177.62,391.92a23.91,23.91,0,0,1-8,17.88V374A23.89,23.89,0,0,1-177.62,391.92Z" transform="translate(185.62 -231.47)"/><path class="cls-17" d="M-177.62,343.75a23.93,23.93,0,0,1-8,17.89V325.87A23.91,23.91,0,0,1-177.62,343.75Z" transform="translate(185.62 -231.47)"/><path class="cls-17" d="M-177.62,295.4a23.89,23.89,0,0,1-8,17.88V277.52A23.91,23.91,0,0,1-177.62,295.4Z" transform="translate(185.62 -231.47)"/><path class="cls-17" d="M-177.62,252.29c0,5.66-3.09,10.75-8,14.25V238.05C-180.71,241.55-177.62,246.63-177.62,252.29Z" transform="translate(185.62 -231.47)"/><path class="cls-17" d="M752.09,576.11v29c-4.74-3.59-7.71-8.75-7.71-14.48S747.35,579.7,752.09,576.11Z" transform="translate(185.62 -231.47)"/><path class="cls-17" d="M752.09,529.24v35.24a24,24,0,0,1,0-35.24Z" transform="translate(185.62 -231.47)"/><path class="cls-17" d="M752.09,481.07v35.25a24,24,0,0,1,0-35.25Z" transform="translate(185.62 -231.47)"/><path class="cls-17" d="M752.09,432.4v35.24a24,24,0,0,1,0-35.24Z" transform="translate(185.62 -231.47)"/><path class="cls-17" d="M752.09,384.4v35.24a24,24,0,0,1,0-35.24Z" transform="translate(185.62 -231.47)"/><path class="cls-17" d="M752.09,336.24v35.24a24,24,0,0,1,0-35.24Z" transform="translate(185.62 -231.47)"/><path class="cls-17" d="M752.09,287.89v35.25a24,24,0,0,1,0-35.25Z" transform="translate(185.62 -231.47)"/><path class="cls-17" d="M752.09,239.89v35.25a24,24,0,0,1,0-35.25Z" transform="translate(185.62 -231.47)"/></svg>